<mxfile host="65bd71144e">
    <diagram id="6K2aCtGG5v6xstUJsYja" name="Page-1">
        <mxGraphModel dx="866" dy="683" grid="1" gridSize="10" guides="1" tooltips="1" connect="1" arrows="1" fold="1" page="1" pageScale="1" pageWidth="827" pageHeight="1169" math="0" shadow="0">
            <root>
                <mxCell id="0"/>
                <mxCell id="1" parent="0"/>
                <mxCell id="3" value="" style="pointerEvents=1;verticalLabelPosition=bottom;shadow=0;dashed=0;align=center;html=1;verticalAlign=top;shape=mxgraph.electrical.miscellaneous.batteryStack;rotation=-90;" parent="1" vertex="1">
                    <mxGeometry x="160.85" y="453" width="100" height="60" as="geometry"/>
                </mxCell>
                <mxCell id="7" style="edgeStyle=none;shape=connector;rounded=0;html=1;exitX=1;exitY=0.57;exitDx=0;exitDy=0;exitPerimeter=0;entryX=0;entryY=0.5;entryDx=0;entryDy=0;labelBackgroundColor=default;strokeColor=default;fontFamily=Helvetica;fontSize=11;fontColor=default;endArrow=none;endFill=0;startArrow=none;" parent="1" source="16" target="3" edge="1">
                    <mxGeometry relative="1" as="geometry"/>
                </mxCell>
                <mxCell id="69" style="edgeStyle=none;rounded=0;html=1;exitX=1;exitY=0.57;exitDx=0;exitDy=0;exitPerimeter=0;entryX=1;entryY=0.5;entryDx=0;entryDy=0;entryPerimeter=0;endArrow=none;endFill=0;" parent="1" source="4" target="68" edge="1">
                    <mxGeometry relative="1" as="geometry"/>
                </mxCell>
                <mxCell id="123" style="edgeStyle=none;rounded=0;html=1;exitX=0;exitY=0.57;exitDx=0;exitDy=0;exitPerimeter=0;entryX=1;entryY=0.5;entryDx=0;entryDy=0;entryPerimeter=0;endArrow=none;endFill=0;" parent="1" source="4" target="121" edge="1">
                    <mxGeometry relative="1" as="geometry"/>
                </mxCell>
                <mxCell id="4" value="" style="verticalLabelPosition=bottom;shadow=0;dashed=0;align=center;html=1;verticalAlign=top;shape=mxgraph.electrical.opto_electronics.led_2;pointerEvents=1;rotation=-180;" parent="1" vertex="1">
                    <mxGeometry x="402.85" y="503" width="100" height="70" as="geometry"/>
                </mxCell>
                <mxCell id="8" value="&lt;div style=&quot;text-align: left;&quot;&gt;&lt;span style=&quot;background-color: initial;&quot;&gt;TEJ3M Unit#4-18&lt;/span&gt;&lt;/div&gt;&lt;div style=&quot;text-align: left;&quot;&gt;&lt;span style=&quot;background-color: initial;&quot;&gt;Alex James&lt;/span&gt;&lt;/div&gt;&lt;div style=&quot;text-align: left;&quot;&gt;Dec. 2023&lt;/div&gt;&lt;div style=&quot;text-align: left;&quot;&gt;Full Adder with chips&lt;/div&gt;" style="text;html=1;align=center;verticalAlign=middle;resizable=0;points=[];autosize=1;strokeColor=none;fillColor=none;fontSize=11;fontFamily=Helvetica;fontColor=default;" parent="1" vertex="1">
                    <mxGeometry x="18" y="240" width="120" height="70" as="geometry"/>
                </mxCell>
                <mxCell id="10" value="+5 V" style="text;html=1;align=center;verticalAlign=middle;resizable=0;points=[];autosize=1;strokeColor=none;fillColor=none;fontSize=11;fontFamily=Helvetica;fontColor=default;" parent="1" vertex="1">
                    <mxGeometry x="155.85" y="510" width="50" height="30" as="geometry"/>
                </mxCell>
                <mxCell id="16" value="" style="ellipse;whiteSpace=wrap;html=1;aspect=fixed;strokeColor=#030303;fillColor=#000000;" parent="1" vertex="1">
                    <mxGeometry x="269.85" y="528" width="10" height="10" as="geometry"/>
                </mxCell>
                <mxCell id="20" value="Cin |&amp;nbsp;A | B | Sum |&amp;nbsp;Carry&lt;br&gt;-----------------------------&lt;br&gt;0&amp;nbsp; &amp;nbsp; &amp;nbsp;| 0 | 0&amp;nbsp;| 0&amp;nbsp; &amp;nbsp; &amp;nbsp; &amp;nbsp;|&amp;nbsp;&amp;nbsp;&lt;br&gt;0&amp;nbsp; &amp;nbsp; &amp;nbsp;| 1 | 1&amp;nbsp;| 0&amp;nbsp; &amp;nbsp; &amp;nbsp; &amp;nbsp;|&amp;nbsp;&lt;br&gt;1&amp;nbsp; &amp;nbsp; &amp;nbsp;| 0 | 1 | 0&amp;nbsp; &amp;nbsp; &amp;nbsp; &amp;nbsp;|&amp;nbsp;&lt;br&gt;1&amp;nbsp; &amp;nbsp; &amp;nbsp;| 1 | 0 | 1&amp;nbsp; &amp;nbsp; &amp;nbsp; &amp;nbsp;|&amp;nbsp;&lt;br&gt;1&amp;nbsp; &amp;nbsp; &amp;nbsp;| 1 | 0 | 1&amp;nbsp; &amp;nbsp; &amp;nbsp; &amp;nbsp;|&amp;nbsp;&lt;br&gt;1&amp;nbsp; &amp;nbsp; &amp;nbsp;| 1 | 0 | 1&amp;nbsp; &amp;nbsp; &amp;nbsp; &amp;nbsp;|&amp;nbsp;&lt;br&gt;1&amp;nbsp; &amp;nbsp; &amp;nbsp;| 1 | 0 | 1&amp;nbsp; &amp;nbsp; &amp;nbsp; &amp;nbsp;|&amp;nbsp;&lt;br&gt;1&amp;nbsp; &amp;nbsp; &amp;nbsp;| 1 | 0 | 1&amp;nbsp; &amp;nbsp; &amp;nbsp; &amp;nbsp;|&amp;nbsp;" style="text;html=1;align=left;verticalAlign=middle;resizable=0;points=[];autosize=1;strokeColor=none;fillColor=none;" parent="1" vertex="1">
                    <mxGeometry x="30" y="350" width="150" height="160" as="geometry"/>
                </mxCell>
                <mxCell id="22" value="A" style="text;html=1;align=center;verticalAlign=middle;resizable=0;points=[];autosize=1;strokeColor=none;fillColor=none;" parent="1" vertex="1">
                    <mxGeometry x="244.70000000000002" y="330" width="30" height="30" as="geometry"/>
                </mxCell>
                <mxCell id="23" value="Carry" style="text;html=1;align=center;verticalAlign=middle;resizable=0;points=[];autosize=1;strokeColor=none;fillColor=none;" parent="1" vertex="1">
                    <mxGeometry x="363" y="570" width="50" height="30" as="geometry"/>
                </mxCell>
                <mxCell id="40" style="edgeStyle=none;shape=connector;rounded=0;html=1;entryX=0.5;entryY=0;entryDx=0;entryDy=0;labelBackgroundColor=default;strokeColor=default;fontFamily=Helvetica;fontSize=11;fontColor=default;endArrow=none;endFill=0;exitX=0.996;exitY=0.124;exitDx=0;exitDy=0;exitPerimeter=0;" parent="1" source="38" target="16" edge="1">
                    <mxGeometry relative="1" as="geometry">
                        <mxPoint x="229.85" y="380" as="sourcePoint"/>
                        <Array as="points">
                            <mxPoint x="230.85" y="430"/>
                            <mxPoint x="274.85" y="430"/>
                        </Array>
                    </mxGeometry>
                </mxCell>
                <mxCell id="38" value="" style="shape=mxgraph.electrical.electro-mechanical.twoWaySwitch;aspect=fixed;elSwitchState=2;rotation=0;flipV=1;flipH=1;" parent="1" vertex="1">
                    <mxGeometry x="231" y="361" width="57.7" height="20" as="geometry"/>
                </mxCell>
                <mxCell id="51" value="" style="shape=mxgraph.electrical.electro-mechanical.twoWaySwitch;aspect=fixed;elSwitchState=2;rotation=0;flipV=1;flipH=1;" parent="1" vertex="1">
                    <mxGeometry x="230.85" y="200" width="57.7" height="20" as="geometry"/>
                </mxCell>
                <mxCell id="53" value="" style="edgeStyle=none;rounded=0;html=1;endArrow=none;endFill=0;startArrow=none;entryX=0.5;entryY=1;entryDx=0;entryDy=0;" parent="1" edge="1">
                    <mxGeometry relative="1" as="geometry">
                        <Array as="points"/>
                        <mxPoint x="210.85" y="435" as="sourcePoint"/>
                        <mxPoint x="210.85" y="254" as="targetPoint"/>
                    </mxGeometry>
                </mxCell>
                <mxCell id="55" value="B" style="text;html=1;align=center;verticalAlign=middle;resizable=0;points=[];autosize=1;strokeColor=none;fillColor=none;" parent="1" vertex="1">
                    <mxGeometry x="244.70000000000002" y="222" width="30" height="30" as="geometry"/>
                </mxCell>
                <mxCell id="61" style="edgeStyle=none;html=1;entryX=0.07;entryY=0.523;entryDx=0;entryDy=0;entryPerimeter=0;rounded=0;endArrow=none;endFill=0;startArrow=none;" parent="1" source="91" target="51" edge="1">
                    <mxGeometry relative="1" as="geometry">
                        <mxPoint x="302.85000000000014" y="290" as="targetPoint"/>
                        <mxPoint x="492.85" y="260" as="sourcePoint"/>
                        <Array as="points"/>
                    </mxGeometry>
                </mxCell>
                <mxCell id="72" style="edgeStyle=orthogonalEdgeStyle;html=1;entryX=1.012;entryY=0.164;entryDx=0;entryDy=0;entryPerimeter=0;endArrow=none;endFill=0;rounded=0;" parent="1" target="51" edge="1">
                    <mxGeometry relative="1" as="geometry">
                        <Array as="points">
                            <mxPoint x="279.85" y="450"/>
                            <mxPoint x="312.85" y="450"/>
                            <mxPoint x="312.85" y="300"/>
                            <mxPoint x="229.85" y="300"/>
                        </Array>
                        <mxPoint x="272.85" y="450" as="sourcePoint"/>
                    </mxGeometry>
                </mxCell>
                <mxCell id="60" value="" style="ellipse;whiteSpace=wrap;html=1;aspect=fixed;strokeColor=#030303;fillColor=#000000;" parent="1" vertex="1">
                    <mxGeometry x="269.85" y="445" width="10" height="10" as="geometry"/>
                </mxCell>
                <mxCell id="67" style="edgeStyle=none;rounded=0;html=1;exitX=1;exitY=0.5;exitDx=0;exitDy=0;entryX=0.967;entryY=0.872;entryDx=0;entryDy=0;entryPerimeter=0;endArrow=none;endFill=0;" parent="1" source="27" target="38" edge="1">
                    <mxGeometry relative="1" as="geometry"/>
                </mxCell>
                <mxCell id="27" value="" style="ellipse;whiteSpace=wrap;html=1;aspect=fixed;strokeColor=#030303;fillColor=#000000;" parent="1" vertex="1">
                    <mxGeometry x="205.85" y="359" width="10" height="10" as="geometry"/>
                </mxCell>
                <mxCell id="64" value="" style="edgeStyle=orthogonalEdgeStyle;orthogonalLoop=1;jettySize=auto;html=1;rounded=0;endArrow=none;endFill=0;entryX=0.886;entryY=0.877;entryDx=0;entryDy=0;entryPerimeter=0;" parent="1" edge="1">
                    <mxGeometry width="100" relative="1" as="geometry">
                        <mxPoint x="210.85" y="260" as="sourcePoint"/>
                        <mxPoint x="235.4277999999999" y="202.45999999999998" as="targetPoint"/>
                        <Array as="points">
                            <mxPoint x="210.85" y="203"/>
                        </Array>
                    </mxGeometry>
                </mxCell>
                <mxCell id="66" value="" style="edgeStyle=none;orthogonalLoop=1;jettySize=auto;html=1;rounded=0;endArrow=none;endFill=0;exitX=0.028;exitY=0.489;exitDx=0;exitDy=0;exitPerimeter=0;startArrow=none;entryX=0;entryY=0.75;entryDx=0;entryDy=0;entryPerimeter=0;" parent="1" source="85" edge="1">
                    <mxGeometry width="100" relative="1" as="geometry">
                        <mxPoint x="287.0844000000001" y="371.22" as="sourcePoint"/>
                        <mxPoint x="556.85" y="334" as="targetPoint"/>
                        <Array as="points">
                            <mxPoint x="352.85" y="372"/>
                            <mxPoint x="412.85" y="372"/>
                            <mxPoint x="492.85" y="372"/>
                            <mxPoint x="492.85" y="334"/>
                        </Array>
                    </mxGeometry>
                </mxCell>
                <mxCell id="70" style="edgeStyle=none;rounded=0;html=1;exitX=0;exitY=0.5;exitDx=0;exitDy=0;exitPerimeter=0;entryX=1;entryY=0.5;entryDx=0;entryDy=0;endArrow=none;endFill=0;" parent="1" source="68" target="16" edge="1">
                    <mxGeometry relative="1" as="geometry"/>
                </mxCell>
                <mxCell id="68" value="" style="pointerEvents=1;verticalLabelPosition=bottom;shadow=0;dashed=0;align=center;html=1;verticalAlign=top;shape=mxgraph.electrical.resistors.resistor_2;" parent="1" vertex="1">
                    <mxGeometry x="295.85" y="523" width="100" height="20" as="geometry"/>
                </mxCell>
                <mxCell id="71" value="220&amp;nbsp;Ω" style="text;html=1;align=center;verticalAlign=middle;resizable=0;points=[];autosize=1;strokeColor=none;fillColor=none;" parent="1" vertex="1">
                    <mxGeometry x="315.85" y="540" width="60" height="30" as="geometry"/>
                </mxCell>
                <mxCell id="80" value="" style="edgeStyle=none;html=1;rounded=0;endArrow=none;endFill=0;" parent="1" edge="1">
                    <mxGeometry relative="1" as="geometry">
                        <mxPoint x="342.85" y="210" as="targetPoint"/>
                        <mxPoint x="632.85" y="210" as="sourcePoint"/>
                        <Array as="points">
                            <mxPoint x="542.85" y="210"/>
                        </Array>
                    </mxGeometry>
                </mxCell>
                <mxCell id="84" style="edgeStyle=orthogonalEdgeStyle;rounded=0;html=1;exitX=0;exitY=0.25;exitDx=0;exitDy=0;exitPerimeter=0;endArrow=none;endFill=0;" parent="1" source="83" edge="1">
                    <mxGeometry relative="1" as="geometry">
                        <mxPoint x="632.85" y="210.00000000000003" as="targetPoint"/>
                        <Array as="points">
                            <mxPoint x="669.85" y="210"/>
                        </Array>
                    </mxGeometry>
                </mxCell>
                <mxCell id="83" value="" style="verticalLabelPosition=bottom;shadow=0;dashed=0;align=center;html=1;verticalAlign=top;shape=mxgraph.electrical.logic_gates.logic_gate;operation=and;rotation=90;" parent="1" vertex="1">
                    <mxGeometry x="604.85" y="259" width="100" height="60" as="geometry"/>
                </mxCell>
                <mxCell id="86" value="" style="edgeStyle=none;orthogonalLoop=1;jettySize=auto;html=1;rounded=0;endArrow=none;endFill=0;exitX=0.028;exitY=0.489;exitDx=0;exitDy=0;exitPerimeter=0;" parent="1" target="85" edge="1">
                    <mxGeometry width="100" relative="1" as="geometry">
                        <mxPoint x="287.0844000000001" y="371.22" as="sourcePoint"/>
                        <mxPoint x="482.85" y="372" as="targetPoint"/>
                        <Array as="points"/>
                    </mxGeometry>
                </mxCell>
                <mxCell id="87" style="rounded=0;html=1;exitX=0.5;exitY=0;exitDx=0;exitDy=0;endArrow=none;endFill=0;entryX=0;entryY=0.75;entryDx=0;entryDy=0;entryPerimeter=0;" parent="1" source="85" target="83" edge="1">
                    <mxGeometry relative="1" as="geometry">
                        <mxPoint x="522.85" y="270" as="targetPoint"/>
                        <Array as="points">
                            <mxPoint x="357.85" y="288"/>
                            <mxPoint x="582.85" y="290"/>
                            <mxPoint x="582.85" y="238"/>
                        </Array>
                    </mxGeometry>
                </mxCell>
                <mxCell id="85" value="" style="ellipse;whiteSpace=wrap;html=1;aspect=fixed;strokeColor=#030303;fillColor=#000000;" parent="1" vertex="1">
                    <mxGeometry x="352.85" y="366" width="10" height="10" as="geometry"/>
                </mxCell>
                <mxCell id="92" value="" style="edgeStyle=none;html=1;entryX=0.07;entryY=0.523;entryDx=0;entryDy=0;entryPerimeter=0;rounded=0;endArrow=none;endFill=0;startArrow=none;" parent="1" target="91" edge="1">
                    <mxGeometry relative="1" as="geometry">
                        <mxPoint x="284.51099999999997" y="209.53999999999996" as="targetPoint"/>
                        <mxPoint x="345.85" y="210.15477792732167" as="sourcePoint"/>
                        <Array as="points"/>
                    </mxGeometry>
                </mxCell>
                <mxCell id="93" style="edgeStyle=none;rounded=0;html=1;exitX=0.5;exitY=1;exitDx=0;exitDy=0;entryX=0;entryY=0.25;entryDx=0;entryDy=0;entryPerimeter=0;endArrow=none;endFill=0;" parent="1" source="91" edge="1">
                    <mxGeometry relative="1" as="geometry">
                        <Array as="points">
                            <mxPoint x="325.85" y="320"/>
                            <mxPoint x="586.85" y="320"/>
                        </Array>
                        <mxPoint x="586.85" y="334" as="targetPoint"/>
                    </mxGeometry>
                </mxCell>
                <mxCell id="91" value="" style="ellipse;whiteSpace=wrap;html=1;aspect=fixed;strokeColor=#030303;fillColor=#000000;" parent="1" vertex="1">
                    <mxGeometry x="320.85" y="205" width="10" height="10" as="geometry"/>
                </mxCell>
                <mxCell id="94" value="" style="verticalLabelPosition=bottom;shadow=0;dashed=0;align=center;html=1;verticalAlign=top;shape=mxgraph.electrical.logic_gates.logic_gate;operation=xor;rotation=90;" parent="1" vertex="1">
                    <mxGeometry x="521.85" y="353" width="100" height="60" as="geometry"/>
                </mxCell>
                <mxCell id="100" style="edgeStyle=none;rounded=0;html=1;exitX=0;exitY=0.5;exitDx=0;exitDy=0;exitPerimeter=0;endArrow=none;endFill=0;" parent="1" source="96" edge="1">
                    <mxGeometry relative="1" as="geometry">
                        <mxPoint x="272.85" y="480" as="targetPoint"/>
                        <Array as="points">
                            <mxPoint x="332.85" y="480"/>
                        </Array>
                    </mxGeometry>
                </mxCell>
                <mxCell id="96" value="" style="pointerEvents=1;verticalLabelPosition=bottom;shadow=0;dashed=0;align=center;html=1;verticalAlign=top;shape=mxgraph.electrical.resistors.resistor_2;" parent="1" vertex="1">
                    <mxGeometry x="332.85" y="440" width="100" height="20" as="geometry"/>
                </mxCell>
                <mxCell id="99" style="edgeStyle=none;rounded=0;html=1;exitX=0;exitY=0.75;exitDx=0;exitDy=0;exitPerimeter=0;entryX=1;entryY=0.5;entryDx=0;entryDy=0;entryPerimeter=0;endArrow=none;endFill=0;" parent="1" source="112" target="94" edge="1">
                    <mxGeometry relative="1" as="geometry">
                        <Array as="points">
                            <mxPoint x="614.85" y="410"/>
                            <mxPoint x="614.85" y="450"/>
                            <mxPoint x="572.85" y="450"/>
                        </Array>
                    </mxGeometry>
                </mxCell>
                <mxCell id="97" value="" style="verticalLabelPosition=bottom;shadow=0;dashed=0;align=center;html=1;verticalAlign=top;shape=mxgraph.electrical.opto_electronics.led_2;pointerEvents=1;rotation=-180;" parent="1" vertex="1">
                    <mxGeometry x="426.85" y="420" width="100" height="70" as="geometry"/>
                </mxCell>
                <mxCell id="101" value="" style="ellipse;whiteSpace=wrap;html=1;aspect=fixed;strokeColor=#030303;fillColor=#000000;" parent="1" vertex="1">
                    <mxGeometry x="270.85" y="476" width="10" height="10" as="geometry"/>
                </mxCell>
                <mxCell id="102" value="Sum" style="text;html=1;align=center;verticalAlign=middle;resizable=0;points=[];autosize=1;strokeColor=none;fillColor=none;" parent="1" vertex="1">
                    <mxGeometry x="451.85" y="400" width="50" height="30" as="geometry"/>
                </mxCell>
                <mxCell id="103" value="220&amp;nbsp;Ω" style="text;html=1;align=center;verticalAlign=middle;resizable=0;points=[];autosize=1;strokeColor=none;fillColor=none;" parent="1" vertex="1">
                    <mxGeometry x="352.85" y="413" width="60" height="30" as="geometry"/>
                </mxCell>
                <mxCell id="104" value="" style="shape=mxgraph.electrical.electro-mechanical.twoWaySwitch;aspect=fixed;elSwitchState=2;rotation=0;flipV=1;flipH=1;" parent="1" vertex="1">
                    <mxGeometry x="230.85" y="60" width="57.7" height="20" as="geometry"/>
                </mxCell>
                <mxCell id="106" value="" style="edgeStyle=none;orthogonalLoop=1;jettySize=auto;html=1;endArrow=none;endFill=0;rounded=0;exitX=0.98;exitY=0.84;exitDx=0;exitDy=0;exitPerimeter=0;" parent="1" edge="1">
                    <mxGeometry width="100" relative="1" as="geometry">
                        <mxPoint x="231.004" y="62.19999999999999" as="sourcePoint"/>
                        <mxPoint x="210.85" y="209" as="targetPoint"/>
                        <Array as="points">
                            <mxPoint x="210.85" y="62"/>
                        </Array>
                    </mxGeometry>
                </mxCell>
                <mxCell id="110" style="edgeStyle=none;rounded=0;html=1;exitX=1;exitY=0.5;exitDx=0;exitDy=0;endArrow=none;endFill=0;entryX=0.993;entryY=0.101;entryDx=0;entryDy=0;entryPerimeter=0;" parent="1" source="107" target="104" edge="1">
                    <mxGeometry relative="1" as="geometry">
                        <mxPoint x="230.85" y="80" as="targetPoint"/>
                        <Array as="points">
                            <mxPoint x="291.85" y="275"/>
                            <mxPoint x="291.85" y="130"/>
                            <mxPoint x="231.85" y="130"/>
                        </Array>
                    </mxGeometry>
                </mxCell>
                <mxCell id="107" value="" style="ellipse;whiteSpace=wrap;html=1;aspect=fixed;strokeColor=#030303;fillColor=#000000;" parent="1" vertex="1">
                    <mxGeometry x="225.70000000000002" y="270" width="10" height="10" as="geometry"/>
                </mxCell>
                <mxCell id="113" style="edgeStyle=none;rounded=0;html=1;exitX=0;exitY=0.75;exitDx=0;exitDy=0;exitPerimeter=0;entryX=0.039;entryY=0.485;entryDx=0;entryDy=0;endArrow=none;endFill=0;entryPerimeter=0;" parent="1" source="111" target="104" edge="1">
                    <mxGeometry relative="1" as="geometry">
                        <Array as="points">
                            <mxPoint x="759.85" y="70"/>
                        </Array>
                    </mxGeometry>
                </mxCell>
                <mxCell id="124" style="edgeStyle=none;rounded=0;html=1;entryX=0;entryY=0.25;entryDx=0;entryDy=0;entryPerimeter=0;endArrow=none;endFill=0;" parent="1" source="111" target="121" edge="1">
                    <mxGeometry relative="1" as="geometry">
                        <Array as="points">
                            <mxPoint x="774.85" y="550"/>
                        </Array>
                    </mxGeometry>
                </mxCell>
                <mxCell id="111" value="" style="verticalLabelPosition=bottom;shadow=0;dashed=0;align=center;html=1;verticalAlign=top;shape=mxgraph.electrical.logic_gates.logic_gate;operation=and;rotation=90;" parent="1" vertex="1">
                    <mxGeometry x="724.85" y="310" width="100" height="60" as="geometry"/>
                </mxCell>
                <mxCell id="116" style="edgeStyle=none;rounded=0;html=1;exitX=0;exitY=0.25;exitDx=0;exitDy=0;exitPerimeter=0;entryX=0;entryY=1;entryDx=0;entryDy=0;endArrow=none;endFill=0;" parent="1" source="112" target="114" edge="1">
                    <mxGeometry relative="1" as="geometry">
                        <Array as="points">
                            <mxPoint x="719.85" y="261"/>
                        </Array>
                    </mxGeometry>
                </mxCell>
                <mxCell id="125" style="edgeStyle=orthogonalEdgeStyle;rounded=0;html=1;exitX=1;exitY=0.5;exitDx=0;exitDy=0;exitPerimeter=0;entryX=0;entryY=0.57;entryDx=0;entryDy=0;entryPerimeter=0;endArrow=none;endFill=0;" parent="1" source="112" target="97" edge="1">
                    <mxGeometry relative="1" as="geometry">
                        <Array as="points">
                            <mxPoint x="624.85" y="510"/>
                            <mxPoint x="624.85" y="470"/>
                            <mxPoint x="526.85" y="470"/>
                        </Array>
                    </mxGeometry>
                </mxCell>
                <mxCell id="112" value="" style="verticalLabelPosition=bottom;shadow=0;dashed=0;align=center;html=1;verticalAlign=top;shape=mxgraph.electrical.logic_gates.logic_gate;operation=xor;rotation=90;" parent="1" vertex="1">
                    <mxGeometry x="654.85" y="430" width="100" height="60" as="geometry"/>
                </mxCell>
                <mxCell id="114" value="" style="ellipse;whiteSpace=wrap;html=1;aspect=fixed;strokeColor=#030303;fillColor=#000000;" parent="1" vertex="1">
                    <mxGeometry x="752.85" y="252" width="10" height="10" as="geometry"/>
                </mxCell>
                <mxCell id="120" style="edgeStyle=none;rounded=0;html=1;exitX=0.5;exitY=0;exitDx=0;exitDy=0;entryX=0;entryY=0.25;entryDx=0;entryDy=0;entryPerimeter=0;endArrow=none;endFill=0;" parent="1" source="119" target="111" edge="1">
                    <mxGeometry relative="1" as="geometry">
                        <Array as="points">
                            <mxPoint x="669.85" y="330"/>
                            <mxPoint x="694.85" y="330"/>
                            <mxPoint x="694.85" y="290"/>
                        </Array>
                    </mxGeometry>
                </mxCell>
                <mxCell id="119" value="" style="ellipse;whiteSpace=wrap;html=1;aspect=fixed;strokeColor=#030303;fillColor=#000000;" parent="1" vertex="1">
                    <mxGeometry x="664.85" y="404" width="10" height="10" as="geometry"/>
                </mxCell>
                <mxCell id="122" value="" style="edgeStyle=none;html=1;exitX=1;exitY=0.5;exitDx=0;exitDy=0;exitPerimeter=0;entryX=0;entryY=0.75;entryDx=0;entryDy=0;entryPerimeter=0;rounded=0;endArrow=none;endFill=0;" parent="1" source="83" target="121" edge="1">
                    <mxGeometry relative="1" as="geometry">
                        <Array as="points">
                            <mxPoint x="634.85" y="340"/>
                        </Array>
                        <mxPoint x="654.85" y="339" as="sourcePoint"/>
                        <mxPoint x="502.8499999999997" y="533.1000000000001" as="targetPoint"/>
                    </mxGeometry>
                </mxCell>
                <mxCell id="121" value="" style="verticalLabelPosition=bottom;shadow=0;dashed=0;align=center;html=1;verticalAlign=top;shape=mxgraph.electrical.logic_gates.logic_gate;operation=or;rotation=-180;" parent="1" vertex="1">
                    <mxGeometry x="532.85" y="503" width="100" height="60" as="geometry"/>
                </mxCell>
            </root>
        </mxGraphModel>
    </diagram>
</mxfile>